<?xml version="1.0" encoding="UTF-8" standalone="no"?>
<!DOCTYPE svg PUBLIC "-//W3C//DTD SVG 1.1//EN" "http://www.w3.org/Graphics/SVG/1.1/DTD/svg11.dtd">
<svg width="100%" height="100%" viewBox="0 0 1438 396" version="1.1" xmlns="http://www.w3.org/2000/svg" xmlns:xlink="http://www.w3.org/1999/xlink" xml:space="preserve" xmlns:serif="http://www.serif.com/" style="fill-rule:evenodd;clip-rule:evenodd;stroke-linejoin:round;stroke-miterlimit:2;">
    <g transform="matrix(1,0,0,1,-6519.99,-8851.76)">
        <g transform="matrix(1,0,0,1,6278.99,8089.6)">
            <g transform="matrix(1.99176,0,0,1.99176,-8953.3,-14911.2)">
                <path d="M4712.57,7869.12C4745.26,7869.29 4776.98,7887.9 4793.95,7915.99C4812.34,7946.43 4813.26,7986.55 4795.6,8018.1C4779.14,8047.49 4746.75,8067.67 4712.57,8067.79C4678.9,8067.91 4646.31,8048.68 4629.21,8018.62C4611.89,7988.16 4611.7,7948.72 4629.5,7917.78C4646.06,7889.02 4677.6,7869.5 4711.32,7869.13C4711.74,7869.12 4712.15,7869.12 4712.57,7869.12ZM4711.97,7877.05C4681.84,7877.2 4652.58,7894.52 4637.07,7920.56C4620.22,7948.82 4619.86,7986.15 4636.1,8014.7C4653.94,8046.06 4691.67,8065.25 4728.13,8058.39C4761.52,8052.1 4789.62,8024.38 4797.82,7991.05C4807.93,7949.94 4787.41,7902.72 4747.54,7884.65C4736.41,7879.61 4724.24,7877.03 4711.97,7877.05ZM4766.33,8013.99L4757.3,8013.99C4757.3,8013.99 4758.97,8001.91 4760.28,7992.47C4761.15,7986.16 4766.38,7981.47 4772.55,7981.47L4772.68,7981.47C4776.27,7981.47 4779.69,7983.08 4782.04,7985.89C4784.39,7988.69 4785.45,7992.42 4784.95,7996.09C4784.88,7996.55 4784.82,7997.01 4784.76,7997.47C4783.45,8006.95 4775.59,8013.99 4766.33,8013.99ZM4675.08,8013.99L4660.66,8013.99C4660.66,8013.99 4668.37,7958.15 4671.72,7933.92C4672.59,7927.61 4677.82,7922.92 4683.99,7922.92L4698.41,7922.92L4696.51,7936.66C4701.39,7928.84 4707.39,7925.47 4711.68,7924.02C4713.22,7923.31 4714.93,7922.92 4716.71,7922.92L4731.13,7922.92L4729.29,7936.29C4737.64,7922.82 4749.11,7922.92 4749.11,7922.92L4749.11,7922.92C4749.22,7922.92 4749.32,7922.92 4749.43,7922.92L4763.85,7922.92L4752.79,8002.99C4751.92,8009.31 4746.69,8013.99 4740.52,8013.99L4726.1,8013.99L4736.83,7936.34C4732.26,7941.35 4727.8,7948.99 4725.92,7960.65L4720.07,8002.99C4719.2,8009.31 4713.97,8013.99 4707.8,8013.99L4693.38,8013.99L4704.02,7937C4699.42,7942.01 4695,7949.49 4693.2,7960.65L4687.35,8002.99C4686.48,8009.31 4681.25,8013.99 4675.08,8013.99ZM5157.17,7978.2C5157.38,7982.3 5158.02,7985.78 5159.08,7988.64C5160.14,7991.5 5161.5,7993.82 5163.16,7995.58C5164.82,7997.35 5166.71,7998.62 5168.82,7999.4C5170.94,8000.17 5173.13,8000.56 5175.4,8000.56C5179.35,8000.56 5182.9,7999.4 5186.04,7997.07C5189.19,7994.73 5191.25,7991.24 5192.24,7986.57L5199.13,7986.57C5198.49,7989.82 5197.4,7992.65 5195.85,7995.05C5194.29,7997.45 5192.44,7999.45 5190.28,8001.04C5188.13,8002.63 5185.74,8003.81 5183.13,8004.59C5180.52,8005.37 5177.8,8005.75 5174.97,8005.75C5171.51,8005.75 5168.26,8005.14 5165.22,8003.9C5162.19,8002.66 5159.54,8000.83 5157.28,7998.39C5155.02,7995.95 5153.25,7992.9 5151.98,7989.22C5150.71,7985.55 5150.07,7981.24 5150.07,7976.3C5150.07,7971.78 5150.72,7967.7 5152.03,7964.06C5153.34,7960.42 5155.16,7957.31 5157.49,7954.73C5159.82,7952.15 5162.57,7950.18 5165.75,7948.8C5168.93,7947.42 5172.36,7946.73 5176.03,7946.73C5179.99,7946.73 5183.45,7947.46 5186.41,7948.9C5189.38,7950.35 5191.86,7952.35 5193.83,7954.89C5195.81,7957.44 5197.31,7960.4 5198.34,7963.79C5199.36,7967.18 5199.87,7970.82 5199.87,7974.71L5199.87,7976.09C5199.87,7976.65 5199.8,7977.36 5199.66,7978.2L5157.17,7978.2ZM4923.52,7978.2C4923.73,7982.3 4924.37,7985.78 4925.43,7988.64C4926.49,7991.5 4927.85,7993.82 4929.51,7995.58C4931.17,7997.35 4933.06,7998.62 4935.18,7999.4C4937.3,8000.17 4939.49,8000.56 4941.75,8000.56C4945.7,8000.56 4949.25,7999.4 4952.4,7997.07C4955.54,7994.73 4957.61,7991.24 4958.59,7986.57L4965.48,7986.57C4964.85,7989.82 4963.75,7992.65 4962.2,7995.05C4960.64,7997.45 4958.79,7999.45 4956.63,8001.04C4954.48,8002.63 4952.1,8003.81 4949.48,8004.59C4946.87,8005.37 4944.15,8005.75 4941.32,8005.75C4937.86,8005.75 4934.61,8005.14 4931.57,8003.9C4928.54,8002.66 4925.89,8000.83 4923.63,7998.39C4921.37,7995.95 4919.6,7992.9 4918.33,7989.22C4917.06,7985.55 4916.42,7981.24 4916.42,7976.3C4916.42,7971.78 4917.07,7967.7 4918.38,7964.06C4919.69,7960.42 4921.51,7957.31 4923.84,7954.73C4926.17,7952.15 4928.93,7950.18 4932.1,7948.8C4935.28,7947.42 4938.71,7946.73 4942.38,7946.73C4946.34,7946.73 4949.8,7947.46 4952.77,7948.9C4955.73,7950.35 4958.21,7952.35 4960.18,7954.89C4962.16,7957.44 4963.66,7960.4 4964.69,7963.79C4965.71,7967.18 4966.22,7970.82 4966.22,7974.71L4966.22,7976.09C4966.22,7976.65 4966.15,7977.36 4966.01,7978.2L4923.52,7978.2ZM5309.12,7966.55L5302.23,7966.55C5301.24,7961.82 5299.37,7958.2 5296.62,7955.69C5293.86,7953.18 5290.22,7951.93 5285.7,7951.93C5283.37,7951.93 5281.08,7952.4 5278.82,7953.36C5276.55,7954.31 5274.56,7955.78 5272.83,7957.75C5271.1,7959.73 5269.7,7962.22 5268.64,7965.22C5267.58,7968.23 5267.05,7971.74 5267.05,7975.77C5267.05,7980.08 5267.55,7983.8 5268.54,7986.95C5269.53,7990.09 5270.87,7992.67 5272.56,7994.68C5274.26,7996.7 5276.2,7998.18 5278.39,7999.13C5280.58,8000.09 5282.84,8000.56 5285.17,8000.56C5289.34,8000.56 5292.91,7999.4 5295.88,7997.07C5298.84,7994.73 5300.82,7991.31 5301.81,7986.79L5308.59,7986.79C5307.32,7993 5304.55,7997.72 5300.27,8000.93C5296,8004.15 5290.82,8005.75 5284.75,8005.75C5281.29,8005.75 5278.04,8005.15 5275,8003.95C5271.96,8002.75 5269.31,8000.93 5267.05,7998.5C5264.79,7996.06 5263.03,7992.99 5261.76,7989.28C5260.48,7985.57 5259.85,7981.24 5259.85,7976.3C5259.85,7971.63 5260.54,7967.48 5261.91,7963.85C5263.29,7960.21 5265.18,7957.12 5267.58,7954.57C5269.98,7952.03 5272.76,7950.09 5275.9,7948.75C5279.05,7947.4 5282.38,7946.73 5285.91,7946.73C5292.41,7946.73 5297.69,7948.53 5301.76,7952.14C5305.82,7955.74 5308.27,7960.54 5309.12,7966.55ZM5216.4,7964.85L5209.52,7964.85C5209.73,7962.1 5210.38,7959.61 5211.48,7957.38C5212.57,7955.16 5214.04,7953.25 5215.87,7951.66C5217.71,7950.07 5219.86,7948.85 5222.34,7948C5224.81,7947.16 5227.53,7946.73 5230.5,7946.73C5236.71,7946.73 5241.34,7948.04 5244.38,7950.65C5247.41,7953.27 5249.15,7956.9 5249.57,7961.57C5249.71,7962.77 5249.78,7963.97 5249.78,7965.17L5249.78,7988.59C5249.78,7991.06 5249.87,7993.45 5250.05,7995.74C5250.22,7998.04 5250.49,8000.88 5250.84,8004.27L5244.27,8004.27L5243.32,7994.1L5240.56,8000.03C5238.58,8002.01 5236.27,8003.46 5233.62,8004.38C5230.97,8005.3 5228.09,8005.75 5224.99,8005.75C5219.83,8005.75 5215.57,8004.43 5212.22,8001.78C5208.86,7999.13 5207.18,7995.26 5207.18,7990.18C5207.18,7983.75 5210.06,7978.96 5215.82,7975.82C5221.58,7972.68 5229.51,7971.1 5239.61,7971.1L5243.21,7971.1L5243.21,7965.54C5243.21,7964.45 5243.14,7963.33 5243,7962.2C5242.72,7958.95 5241.57,7956.45 5239.56,7954.68C5237.54,7952.91 5234.52,7952.03 5230.5,7952.03C5226.61,7952.03 5223.4,7953.07 5220.85,7955.16C5218.31,7957.24 5216.83,7960.47 5216.4,7964.85ZM5087.45,7946.73C5091.9,7946.73 5095.82,7947.49 5099.21,7949.01C5102.6,7950.53 5105.44,7952.63 5107.74,7955.32C5110.03,7958 5111.76,7961.13 5112.93,7964.69C5114.1,7968.26 5114.68,7972.13 5114.68,7976.3C5114.68,7980.39 5114.1,7984.24 5112.93,7987.85C5111.76,7991.45 5110.03,7994.57 5107.74,7997.22C5105.44,7999.87 5102.6,8001.96 5099.21,8003.48C5095.82,8004.99 5091.9,8005.75 5087.45,8005.75C5082.99,8005.75 5079.07,8004.99 5075.68,8003.48C5072.29,8001.96 5069.45,7999.87 5067.15,7997.22C5064.86,7994.57 5063.13,7991.45 5061.96,7987.85C5060.8,7984.24 5060.21,7980.39 5060.21,7976.3C5060.21,7972.13 5060.8,7968.26 5061.96,7964.69C5063.13,7961.13 5064.86,7958 5067.15,7955.32C5069.45,7952.63 5072.29,7950.53 5075.68,7949.01C5079.07,7947.49 5082.99,7946.73 5087.45,7946.73ZM5327.45,7948.64L5338.15,7948.64L5338.15,7953.73L5327.45,7953.73L5327.45,7991.71C5327.45,7992.39 5327.49,7993.11 5327.56,7993.89C5327.77,7996.57 5328.58,7998.34 5329.99,7999.19C5331.41,8000.03 5334.02,8000.21 5337.84,7999.71L5337.84,8004.59C5336.71,8004.8 5335.58,8004.94 5334.45,8005.01C5333.32,8005.08 5332.19,8005.12 5331.06,8005.12C5327.88,8005.12 5325.47,8004.41 5323.85,8003C5322.23,8001.59 5321.27,7999.33 5320.99,7996.22C5320.92,7995.23 5320.88,7994.19 5320.88,7993.09L5320.88,7953.73L5313.68,7953.73L5313.68,7948.64L5320.88,7948.64L5320.88,7936.24L5327.45,7936.24L5327.45,7948.64ZM4983.6,8004.27L4977.03,8004.27L4977.03,7948.22L4983.6,7948.22L4983.6,7957.86L4986.78,7951.61C4989.96,7948.36 4994.27,7946.73 4999.71,7946.73C5004.16,7946.73 5007.74,7947.83 5010.46,7950.02C5013.18,7952.21 5015.04,7955.1 5016.03,7958.71L5020.37,7951.61C5022,7949.91 5023.89,7948.68 5026.04,7947.9C5028.19,7947.12 5030.61,7946.73 5033.3,7946.73C5038.39,7946.73 5042.32,7948.13 5045.11,7950.92C5047.9,7953.71 5049.62,7957.33 5050.25,7961.78C5050.46,7963.19 5050.61,7964.55 5050.68,7965.86C5050.75,7967.17 5050.78,7968.95 5050.78,7971.21L5050.78,8004.27L5044.21,8004.27L5044.21,7974.18C5044.21,7971.92 5044.18,7969.99 5044.11,7968.4C5044.04,7966.81 5043.93,7965.31 5043.79,7963.9C5043.29,7960.08 5042.02,7957.15 5039.97,7955.1C5037.93,7953.06 5035.03,7952.03 5031.28,7952.03C5029.31,7952.03 5027.45,7952.44 5025.72,7953.25C5023.99,7954.06 5022.49,7955.39 5021.22,7957.22C5019.95,7959.06 5018.96,7961.43 5018.25,7964.32C5017.55,7967.22 5017.19,7970.75 5017.19,7974.92L5017.19,8004.27L5010.62,8004.27L5010.62,7974.18C5010.62,7971.92 5010.59,7969.99 5010.52,7968.4C5010.45,7966.81 5010.34,7965.31 5010.2,7963.9C5009.7,7960.08 5008.43,7957.15 5006.38,7955.1C5004.34,7953.06 5001.44,7952.03 4997.69,7952.03C4995.72,7952.03 4993.86,7952.44 4992.13,7953.25C4990.4,7954.06 4988.9,7955.39 4987.63,7957.22C4986.36,7959.06 4985.37,7961.43 4984.66,7964.32C4983.95,7967.22 4983.6,7970.75 4983.6,7974.92L4983.6,8004.27ZM5131.1,8004.27L5124.53,8004.27L5124.53,7948.22L5131.1,7948.22L5131.1,7958.39L5135.13,7951.18C5136.4,7949.84 5137.87,7948.8 5139.53,7948.06C5141.19,7947.32 5142.94,7946.95 5144.77,7946.95C5146.11,7946.95 5147.21,7947.09 5148.06,7947.37L5148.06,7952.56C5145.65,7952.35 5143.41,7952.6 5141.33,7953.3C5139.24,7954.01 5137.44,7955.18 5135.92,7956.8C5134.4,7958.42 5133.22,7960.56 5132.37,7963.21C5131.53,7965.86 5131.1,7969.06 5131.1,7972.8L5131.1,8004.27ZM4842.46,8004.27L4835.89,8004.27L4835.89,7931.16L4846.59,7931.16L4871.28,7998.76L4895.86,7931.16L4906.36,7931.16L4906.36,8004.27L4899.78,8004.27L4899.78,7950.6C4899.78,7945.76 4899.86,7941.22 4900,7936.98C4898.58,7941.22 4896.99,7945.78 4895.23,7950.65C4893.46,7955.53 4891.73,7960.23 4890.04,7964.75L4875.2,8004.27L4866.94,8004.27L4851.99,7964.64C4850.37,7960.19 4848.69,7955.55 4846.96,7950.71C4845.23,7945.87 4843.66,7941.33 4842.25,7937.09C4842.39,7941.33 4842.46,7945.87 4842.46,7950.71L4842.46,8004.27ZM5227,8000.56C5229.47,8000.56 5231.7,8000.12 5233.68,7999.24C5235.65,7998.36 5237.35,7997.12 5238.76,7995.53C5240.17,7993.94 5241.27,7992.05 5242.05,7989.86C5242.82,7987.67 5243.21,7985.27 5243.21,7982.65L5243.21,7976.19C5239.26,7975.91 5235.53,7975.94 5232.03,7976.3C5228.54,7976.65 5225.48,7977.37 5222.87,7978.47C5220.25,7979.56 5218.19,7981.03 5216.67,7982.87C5215.15,7984.7 5214.39,7986.96 5214.39,7989.65C5214.39,7993.25 5215.47,7995.97 5217.62,7997.81C5219.78,7999.64 5222.9,8000.56 5227,8000.56ZM5087.45,8000.56C5090.34,8000.56 5093.03,8000.02 5095.5,7998.92C5097.97,7997.82 5100.09,7996.24 5101.86,7994.15C5103.62,7992.07 5105,7989.52 5105.99,7986.52C5106.98,7983.52 5107.47,7980.11 5107.47,7976.3C5107.47,7972.48 5106.98,7969.07 5105.99,7966.07C5105,7963.07 5103.62,7960.53 5101.86,7958.44C5100.09,7956.36 5097.97,7954.77 5095.5,7953.67C5093.03,7952.58 5090.34,7952.03 5087.45,7952.03C5084.55,7952.03 5081.86,7952.58 5079.39,7953.67C5076.92,7954.77 5074.8,7956.36 5073.03,7958.44C5071.27,7960.53 5069.89,7963.07 5068.9,7966.07C5067.91,7969.07 5067.42,7972.48 5067.42,7976.3C5067.42,7980.11 5067.91,7983.52 5068.9,7986.52C5069.89,7989.52 5071.27,7992.07 5073.03,7994.15C5074.8,7996.24 5076.92,7997.82 5079.39,7998.92C5081.86,8000.02 5084.55,8000.56 5087.45,8000.56ZM4942.17,7952.03C4939.84,7952.03 4937.61,7952.47 4935.49,7953.36C4933.38,7954.24 4931.47,7955.55 4929.77,7957.28C4928.08,7959.01 4926.66,7961.18 4925.53,7963.79C4924.4,7966.41 4923.73,7969.48 4923.52,7973.01L4959.55,7973.01C4959.19,7965.81 4957.39,7960.51 4954.14,7957.12C4950.89,7953.73 4946.9,7952.03 4942.17,7952.03ZM5175.82,7952.03C5173.49,7952.03 5171.26,7952.47 5169.14,7953.36C5167.02,7954.24 5165.12,7955.55 5163.42,7957.28C5161.73,7959.01 5160.31,7961.18 5159.18,7963.79C5158.05,7966.41 5157.38,7969.48 5157.17,7973.01L5193.2,7973.01C5192.84,7965.81 5191.04,7960.51 5187.79,7957.12C5184.54,7953.73 5180.55,7952.03 5175.82,7952.03ZM4667.21,7922.92L4664.23,7944.44C4663.36,7950.76 4658.13,7955.44 4651.96,7955.45L4651.84,7955.45C4648.24,7955.45 4644.82,7953.83 4642.47,7951.03C4640.12,7948.22 4639.06,7944.49 4639.56,7940.82C4639.63,7940.36 4639.69,7939.9 4639.75,7939.44C4641.06,7929.96 4648.92,7922.92 4658.19,7922.92L4667.21,7922.92Z" style="fill:white;"/>
            </g>
        </g>
    </g>
</svg>
