<?xml version="1.0" encoding="UTF-8" standalone="no"?>
<!DOCTYPE svg PUBLIC "-//W3C//DTD SVG 1.1//EN" "http://www.w3.org/Graphics/SVG/1.1/DTD/svg11.dtd">
<svg width="100%" height="100%" viewBox="0 0 393 246" version="1.1" xmlns="http://www.w3.org/2000/svg" xmlns:xlink="http://www.w3.org/1999/xlink" xml:space="preserve" xmlns:serif="http://www.serif.com/" style="fill-rule:evenodd;clip-rule:evenodd;stroke-linejoin:round;stroke-miterlimit:2;">
    <g transform="matrix(1,0,0,1,-2941.77,-8924.27)">
        <g transform="matrix(1,0,0,1,2178,8087)">
            <g transform="matrix(1,0,0,1,0,-5884.93)">
                <path d="M1105.75,6967.66L1081.43,6967.66C1081.43,6967.66 1085.94,6935.09 1089.45,6909.65C1091.8,6892.64 1105.9,6880 1122.52,6880C1122.64,6880 1122.75,6880 1122.87,6880C1132.55,6880 1141.76,6884.34 1148.1,6891.91C1154.45,6899.47 1157.31,6909.51 1155.94,6919.42C1155.77,6920.65 1155.6,6921.89 1155.43,6923.12C1151.89,6948.68 1130.73,6967.66 1105.75,6967.66ZM859.835,6967.66L820.961,6967.66C820.961,6967.66 841.759,6817.15 850.783,6751.84C853.133,6734.84 867.222,6722.2 883.841,6722.2L922.716,6722.2L917.598,6759.24C930.741,6738.16 946.903,6729.08 958.48,6725.17C962.637,6723.26 967.227,6722.2 972.028,6722.2L1010.9,6722.2L1005.93,6758.23C1028.44,6721.94 1059.35,6722.2 1059.35,6722.2L1059.35,6722.21C1059.64,6722.21 1059.93,6722.2 1060.22,6722.2L1099.09,6722.2L1069.27,6938.02C1066.92,6955.03 1052.83,6967.66 1036.21,6967.66L997.336,6967.66L1026.26,6758.38C1013.95,6771.87 1001.93,6792.47 996.851,6823.89L981.081,6938.02C978.731,6955.03 964.642,6967.66 948.023,6967.66L909.148,6967.66L937.822,6760.15C925.434,6773.66 913.523,6793.81 908.664,6823.89L892.893,6938.02C890.543,6955.03 876.454,6967.66 859.835,6967.66ZM797.528,6809.87L797.186,6809.87C787.501,6809.87 778.293,6805.52 771.948,6797.96C765.602,6790.39 762.744,6780.36 764.114,6770.44C764.284,6769.21 764.455,6767.98 764.625,6766.74C768.157,6741.18 789.327,6722.2 814.298,6722.2L838.616,6722.2L830.6,6780.21C828.249,6797.23 814.154,6809.87 797.528,6809.87Z" style="fill:white;"/>
            </g>
        </g>
    </g>
</svg>
