<?xml version="1.0" encoding="UTF-8" standalone="no"?>
<!DOCTYPE svg PUBLIC "-//W3C//DTD SVG 1.1//EN" "http://www.w3.org/Graphics/SVG/1.1/DTD/svg11.dtd">
<svg width="100%" height="100%" viewBox="0 0 518 536" version="1.1" xmlns="http://www.w3.org/2000/svg" xmlns:xlink="http://www.w3.org/1999/xlink" xml:space="preserve" xmlns:serif="http://www.serif.com/" style="fill-rule:evenodd;clip-rule:evenodd;stroke-linejoin:round;stroke-miterlimit:2;">
    <g transform="matrix(1,0,0,1,-4933.3,-8779.28)">
        <g transform="matrix(1,0,0,1,4232.2,8087)">
            <g transform="matrix(2.69513,0,0,2.69513,-11740.1,-20516)">
                <path d="M4712.57,7869.12C4745.26,7869.29 4776.98,7887.9 4793.95,7915.99C4812.34,7946.43 4813.26,7986.55 4795.6,8018.1C4779.14,8047.49 4746.75,8067.67 4712.57,8067.79C4678.9,8067.91 4646.31,8048.68 4629.21,8018.62C4611.89,7988.16 4611.7,7948.72 4629.5,7917.78C4646.06,7889.02 4677.6,7869.5 4711.32,7869.13C4711.74,7869.12 4712.15,7869.12 4712.57,7869.12ZM4711.97,7877.05C4681.84,7877.2 4652.58,7894.52 4637.07,7920.56C4620.22,7948.82 4619.86,7986.15 4636.1,8014.7C4653.94,8046.06 4691.67,8065.25 4728.13,8058.39C4761.52,8052.1 4789.62,8024.38 4797.82,7991.05C4807.93,7949.94 4787.41,7902.72 4747.54,7884.65C4736.41,7879.61 4724.24,7877.03 4711.97,7877.05ZM4766.33,8013.99L4757.3,8013.99C4757.3,8013.99 4758.97,8001.91 4760.28,7992.47C4761.15,7986.16 4766.38,7981.47 4772.55,7981.47L4772.68,7981.47C4776.27,7981.47 4779.69,7983.08 4782.04,7985.89C4784.39,7988.69 4785.45,7992.42 4784.95,7996.09C4784.88,7996.55 4784.82,7997.01 4784.76,7997.47C4783.45,8006.95 4775.59,8013.99 4766.33,8013.99ZM4675.08,8013.99L4660.66,8013.99C4660.66,8013.99 4668.37,7958.15 4671.72,7933.92C4672.59,7927.61 4677.82,7922.92 4683.99,7922.92L4698.41,7922.92L4696.51,7936.66C4701.39,7928.84 4707.39,7925.47 4711.68,7924.02C4713.22,7923.31 4714.93,7922.92 4716.71,7922.92L4731.13,7922.92L4729.29,7936.29C4737.64,7922.82 4749.11,7922.92 4749.11,7922.92L4749.11,7922.92C4749.22,7922.92 4749.32,7922.92 4749.43,7922.92L4763.85,7922.92L4752.79,8002.99C4751.92,8009.31 4746.69,8013.99 4740.52,8013.99L4726.1,8013.99L4736.83,7936.34C4732.26,7941.35 4727.8,7948.99 4725.92,7960.65L4720.07,8002.99C4719.2,8009.31 4713.97,8013.99 4707.8,8013.99L4693.38,8013.99L4704.02,7937C4699.42,7942.01 4695,7949.49 4693.2,7960.65L4687.35,8002.99C4686.48,8009.31 4681.25,8013.99 4675.08,8013.99ZM4667.21,7922.92L4664.23,7944.44C4663.36,7950.76 4658.13,7955.44 4651.96,7955.45L4651.84,7955.45C4648.24,7955.45 4644.82,7953.83 4642.47,7951.03C4640.12,7948.22 4639.06,7944.49 4639.56,7940.82C4639.63,7940.36 4639.69,7939.9 4639.75,7939.44C4641.06,7929.96 4648.92,7922.92 4658.19,7922.92L4667.21,7922.92Z" style="fill:white;"/>
            </g>
        </g>
    </g>
</svg>
